<mxfile host="app.diagrams.net" agent="Mozilla/5.0 (X11; Linux x86_64) AppleWebKit/537.36 (KHTML, like Gecko) Chrome/127.0.0.0 Safari/537.36" version="24.8.0">
  <diagram name="Page-1" id="GjreZuKbM5QIrN6oEiBM">
    <mxGraphModel dx="658" dy="691" grid="1" gridSize="10" guides="1" tooltips="1" connect="1" arrows="1" fold="1" page="1" pageScale="1" pageWidth="850" pageHeight="1100" math="0" shadow="0">
      <root>
        <mxCell id="0" />
        <mxCell id="1" parent="0" />
        <mxCell id="PYYnuT20OohMTXe8nKhY-3" value="" style="edgeStyle=orthogonalEdgeStyle;rounded=0;orthogonalLoop=1;jettySize=auto;html=1;" edge="1" parent="1" source="PYYnuT20OohMTXe8nKhY-1" target="PYYnuT20OohMTXe8nKhY-2">
          <mxGeometry relative="1" as="geometry" />
        </mxCell>
        <mxCell id="PYYnuT20OohMTXe8nKhY-1" value="Lead fills out interest form&amp;nbsp;" style="ellipse;whiteSpace=wrap;html=1;" vertex="1" parent="1">
          <mxGeometry x="275" y="50" width="150" height="80" as="geometry" />
        </mxCell>
        <mxCell id="PYYnuT20OohMTXe8nKhY-5" value="" style="edgeStyle=orthogonalEdgeStyle;rounded=0;orthogonalLoop=1;jettySize=auto;html=1;" edge="1" parent="1" source="PYYnuT20OohMTXe8nKhY-2" target="PYYnuT20OohMTXe8nKhY-4">
          <mxGeometry relative="1" as="geometry" />
        </mxCell>
        <mxCell id="PYYnuT20OohMTXe8nKhY-6" value="No" style="edgeLabel;html=1;align=center;verticalAlign=middle;resizable=0;points=[];" vertex="1" connectable="0" parent="PYYnuT20OohMTXe8nKhY-5">
          <mxGeometry x="-0.025" relative="1" as="geometry">
            <mxPoint as="offset" />
          </mxGeometry>
        </mxCell>
        <mxCell id="PYYnuT20OohMTXe8nKhY-8" value="" style="edgeStyle=orthogonalEdgeStyle;rounded=0;orthogonalLoop=1;jettySize=auto;html=1;" edge="1" parent="1" source="PYYnuT20OohMTXe8nKhY-2" target="PYYnuT20OohMTXe8nKhY-7">
          <mxGeometry relative="1" as="geometry" />
        </mxCell>
        <mxCell id="PYYnuT20OohMTXe8nKhY-9" value="Yes" style="edgeLabel;html=1;align=center;verticalAlign=middle;resizable=0;points=[];" vertex="1" connectable="0" parent="PYYnuT20OohMTXe8nKhY-8">
          <mxGeometry x="-0.04" y="-1" relative="1" as="geometry">
            <mxPoint as="offset" />
          </mxGeometry>
        </mxCell>
        <mxCell id="PYYnuT20OohMTXe8nKhY-2" value="Lead exists" style="rhombus;whiteSpace=wrap;html=1;" vertex="1" parent="1">
          <mxGeometry x="290" y="210" width="120" height="100" as="geometry" />
        </mxCell>
        <mxCell id="PYYnuT20OohMTXe8nKhY-4" value="Create a new lead" style="whiteSpace=wrap;html=1;" vertex="1" parent="1">
          <mxGeometry x="500" y="230" width="120" height="60" as="geometry" />
        </mxCell>
        <mxCell id="PYYnuT20OohMTXe8nKhY-11" value="" style="edgeStyle=orthogonalEdgeStyle;rounded=0;orthogonalLoop=1;jettySize=auto;html=1;" edge="1" parent="1" source="PYYnuT20OohMTXe8nKhY-7" target="PYYnuT20OohMTXe8nKhY-10">
          <mxGeometry relative="1" as="geometry">
            <Array as="points">
              <mxPoint x="190" y="400" />
            </Array>
          </mxGeometry>
        </mxCell>
        <mxCell id="PYYnuT20OohMTXe8nKhY-7" value="Update the existing lead" style="whiteSpace=wrap;html=1;" vertex="1" parent="1">
          <mxGeometry x="90" y="230" width="120" height="60" as="geometry" />
        </mxCell>
        <mxCell id="PYYnuT20OohMTXe8nKhY-14" value="" style="edgeStyle=orthogonalEdgeStyle;rounded=0;orthogonalLoop=1;jettySize=auto;html=1;" edge="1" parent="1" source="PYYnuT20OohMTXe8nKhY-10" target="PYYnuT20OohMTXe8nKhY-13">
          <mxGeometry relative="1" as="geometry" />
        </mxCell>
        <mxCell id="PYYnuT20OohMTXe8nKhY-10" value="Notify SDR" style="whiteSpace=wrap;html=1;" vertex="1" parent="1">
          <mxGeometry x="290" y="380" width="120" height="60" as="geometry" />
        </mxCell>
        <mxCell id="PYYnuT20OohMTXe8nKhY-12" style="edgeStyle=orthogonalEdgeStyle;rounded=0;orthogonalLoop=1;jettySize=auto;html=1;exitX=0.25;exitY=1;exitDx=0;exitDy=0;entryX=1;entryY=0.367;entryDx=0;entryDy=0;entryPerimeter=0;" edge="1" parent="1" source="PYYnuT20OohMTXe8nKhY-4" target="PYYnuT20OohMTXe8nKhY-10">
          <mxGeometry relative="1" as="geometry" />
        </mxCell>
        <mxCell id="PYYnuT20OohMTXe8nKhY-16" value="" style="edgeStyle=orthogonalEdgeStyle;rounded=0;orthogonalLoop=1;jettySize=auto;html=1;" edge="1" parent="1" source="PYYnuT20OohMTXe8nKhY-13" target="PYYnuT20OohMTXe8nKhY-15">
          <mxGeometry relative="1" as="geometry" />
        </mxCell>
        <mxCell id="PYYnuT20OohMTXe8nKhY-13" value="SDR follows up with the lead&amp;nbsp;" style="whiteSpace=wrap;html=1;" vertex="1" parent="1">
          <mxGeometry x="290" y="520" width="120" height="60" as="geometry" />
        </mxCell>
        <mxCell id="PYYnuT20OohMTXe8nKhY-18" value="No" style="edgeStyle=orthogonalEdgeStyle;rounded=0;orthogonalLoop=1;jettySize=auto;html=1;" edge="1" parent="1" source="PYYnuT20OohMTXe8nKhY-15" target="PYYnuT20OohMTXe8nKhY-17">
          <mxGeometry relative="1" as="geometry" />
        </mxCell>
        <mxCell id="PYYnuT20OohMTXe8nKhY-22" value="Yes" style="edgeStyle=orthogonalEdgeStyle;rounded=0;orthogonalLoop=1;jettySize=auto;html=1;" edge="1" parent="1" source="PYYnuT20OohMTXe8nKhY-15" target="PYYnuT20OohMTXe8nKhY-21">
          <mxGeometry relative="1" as="geometry" />
        </mxCell>
        <mxCell id="PYYnuT20OohMTXe8nKhY-15" value="Lead qualified?" style="rhombus;whiteSpace=wrap;html=1;" vertex="1" parent="1">
          <mxGeometry x="295" y="640" width="110" height="110" as="geometry" />
        </mxCell>
        <mxCell id="PYYnuT20OohMTXe8nKhY-20" value="" style="edgeStyle=orthogonalEdgeStyle;rounded=0;orthogonalLoop=1;jettySize=auto;html=1;" edge="1" parent="1" source="PYYnuT20OohMTXe8nKhY-17" target="PYYnuT20OohMTXe8nKhY-19">
          <mxGeometry relative="1" as="geometry" />
        </mxCell>
        <mxCell id="PYYnuT20OohMTXe8nKhY-17" value="Mark the lead as cold" style="whiteSpace=wrap;html=1;" vertex="1" parent="1">
          <mxGeometry x="480" y="665" width="120" height="60" as="geometry" />
        </mxCell>
        <mxCell id="PYYnuT20OohMTXe8nKhY-19" value="Add, read to email list" style="ellipse;whiteSpace=wrap;html=1;" vertex="1" parent="1">
          <mxGeometry x="650" y="655" width="110" height="80" as="geometry" />
        </mxCell>
        <mxCell id="PYYnuT20OohMTXe8nKhY-21" value="Convert lead" style="ellipse;whiteSpace=wrap;html=1;" vertex="1" parent="1">
          <mxGeometry x="110" y="655" width="120" height="80" as="geometry" />
        </mxCell>
      </root>
    </mxGraphModel>
  </diagram>
</mxfile>
